<?xml version="1.0" encoding="UTF-8"?>
<svg width="18px" height="18px" viewBox="0 0 18 18" version="1.1" xmlns="http://www.w3.org/2000/svg" xmlns:xlink="http://www.w3.org/1999/xlink">
    <!-- Generator: Sketch 44.1 (41455) - http://www.bohemiancoding.com/sketch -->
    <title>icon_手机</title>
    <desc>Created with Sketch.</desc>
    <defs></defs>
    <g id="Page-1" stroke="none" stroke-width="1" fill="none" fill-rule="evenodd">
        <g id="ic_tablet_android_24px">
            <g id="Clipped">
                <polygon id="a" points="0 0 18 0 18 18 0 18"></polygon>
                <path d="M13.5,0 L4.5,0 C3.255,0 2.25,1.005 2.25,2.25 L2.25,15.75 C2.25,16.995 3.255,18 4.5,18 L13.5,18 C14.745,18 15.75,16.995 15.75,15.75 L15.75,2.25 C15.75,1.005 14.745,0 13.5,0 L13.5,0 Z M10.5,16.5 L7.5,16.5 L7.5,15.75 L10.5,15.75 L10.5,16.5 L10.5,16.5 Z M14.4375,14.25 L3.5625,14.25 L3.5625,2.25 L14.4375,2.25 L14.4375,14.25 L14.4375,14.25 Z" id="Shape" fill="#07BF96"></path>
            </g>
        </g>
    </g>
</svg>