<?xml version="1.0" encoding="UTF-8"?>
<svg width="18px" height="18px" viewBox="0 0 18 18" version="1.1" xmlns="http://www.w3.org/2000/svg" xmlns:xlink="http://www.w3.org/1999/xlink">
    <!-- Generator: Sketch 44.1 (41455) - http://www.bohemiancoding.com/sketch -->
    <title>icon_身份证</title>
    <desc>Created with Sketch.</desc>
    <defs></defs>
    <g id="Page-1" stroke="none" stroke-width="1" fill="none" fill-rule="evenodd">
        <g id="ic_contact_mail_24px-copy">
            <g id="Group">
                <polygon id="Shape" points="0 0 18 0 18 18 0 18"></polygon>
                <polygon id="Shape" points="0 0 18 0 18 18 0 18"></polygon>
                <path d="M16.5,2.25 L1.5,2.25 C0.675,2.25 0,2.925 0,3.75 L0,14.25 C0,15.075 0.675,15.75 1.5,15.75 L16.5,15.75 C17.325,15.75 17.9925,15.075 17.9925,14.25 L18,3.75 C18,2.925 17.325,2.25 16.5,2.25 L16.5,2.25 Z M6,4.5 C7.245,4.5 8.25,5.505 8.25,6.75 C8.25,7.995 7.245,9 6,9 C4.755,9 3.75,7.995 3.75,6.75 C3.75,5.505 4.755,4.5 6,4.5 L6,4.5 Z M10.5,13.5 L1.5,13.5 L1.5,12.75 C1.5,11.25 4.5,10.425 6,10.425 C7.5,10.425 10.5,11.25 10.5,12.75 L10.5,13.5 L10.5,13.5 Z M12,7.5 L15.75,7.5 L15.75,8.25 L12,8.25 L12,7.5 Z M12,9.75 L15.75,9.75 L15.75,10.5 L12,10.5 L12,9.75 Z" id="Combined-Shape" fill="#07BF96"></path>
            </g>
        </g>
    </g>
</svg>