<?xml version="1.0" encoding="UTF-8"?>
<svg width="18px" height="18px" viewBox="0 0 18 18" version="1.1" xmlns="http://www.w3.org/2000/svg" xmlns:xlink="http://www.w3.org/1999/xlink">
    <!-- Generator: Sketch 44.1 (41455) - http://www.bohemiancoding.com/sketch -->
    <title>icon_联系人</title>
    <desc>Created with Sketch.</desc>
    <defs>
        <rect id="path-1" x="0" y="0" width="18" height="18"></rect>
    </defs>
    <g id="Page-1" stroke="none" stroke-width="1" fill="none" fill-rule="evenodd">
        <g id="Group-17">
            <g id="Rectangle-5" opacity="0">
                <use fill="#D8D8D8" fill-rule="evenodd" xlink:href="#path-1"></use>
                <rect stroke="#979797" stroke-width="1" x="0.5" y="0.5" width="17" height="17"></rect>
            </g>
            <path d="M14.6361319,14.5124042 C15.6936039,15.0443731 15.4052004,16.8531293 15.116797,16.8531293 L0.312433389,16.8531293 C0.0240299233,16.8531293 -0.360493236,14.9379926 0.696956549,14.5124042 C3.96544779,12.9164532 6.73372158,12.3373982 5.14886741,10.9760815 C4.82539835,10.6982315 4.29621849,10.2664062 4.13449505,9.84869131 C3.97274942,9.43095428 3.97483561,9.44345012 3.96105349,9.40534333 C2.61520024,8.97975493 2.32823935,7.5261017 2.32823935,6.78132753 C2.32823935,6.03655335 2.90360371,5.36226455 3.48038845,5.25588404 C3.48038845,4.93667615 3.77318621,4.2983046 3.77318621,4.08549934 C3.8693281,2.80875625 3.78834431,3.12794202 4.46127094,1 C5.13419757,1.31918577 5.98780081,1.53486618 6.32083524,1.39827449 C6.80150028,1.18549134 7.23396122,1 7.61848438,1 C8.67593417,1 10.5985722,1.63837155 11.3676407,3.76631357 C11.4637826,4.2983046 11.4637826,4.72389301 11.4637826,5.25588404 C12.0405673,5.36226455 12.5212323,6.00065822 12.5212323,6.63902977 C12.5212323,7.38380394 12.3289708,9.08615756 10.9831175,9.40534333 C10.9729529,9.45035047 10.9606356,9.49535761 10.9461655,9.54047534 C10.8238353,9.92214031 10.5477492,10.3127846 10.1179293,10.7885112 C8.57981447,12.5972453 11.3676407,12.8100506 14.6361319,14.5124042 L14.6361319,14.5124042 Z M17.5923396,13.5446511 C14.7088154,12.0435801 12.3696957,11.9430383 13.7153492,10.2275475 C14.099828,9.79866372 14.306826,8.87164933 14.4990654,8.44276556 C15.6524795,8.12110273 15.9542878,6.90013753 15.9542878,6.25681188 C15.9542878,5.61348623 15.381631,5.07432944 14.804935,4.9671085 C14.804935,4.53822473 14.804935,4.00214214 14.7088154,3.57325837 C14.0359775,1.53610471 12.3058674,1 11.3446927,1 C11.248573,1 12.3082199,2.18283631 12.596579,3.04058172 C12.78418,3.77075899 12.596579,4.07205249 12.596579,4.56843591 C13.173275,4.89007662 13.7153492,5.54300084 13.7153492,6.40076838 C13.7153492,8.11625921 13.6345208,9.38453168 12.4811066,9.59897356 C12.1927476,10.0278573 11.9560326,10.4811135 11.4754341,10.9099973 C10.9948578,11.4460799 10.6103791,11.7860994 11.4754341,12.2149832 C11.7637932,12.3222041 14.4546341,13.3633619 15.4158089,13.7922457 C15.9925048,14.1139085 16.2217628,14.8430906 16.3178603,15.593615 L18.0479926,15.593615 C18.0479926,15.593615 18.5535143,14.0807558 17.5923396,13.5446511 L17.5923396,13.5446511 Z" id="联系人" fill="#07BF96"></path>
        </g>
    </g>
</svg>